<svg version="1" xmlns="http://www.w3.org/2000/svg" width="1333.333" height="1333.333" viewBox="0 0 1000.000000 1000.000000"><path d="M339 1.8c0 .6.4 1.2.8 1.4.5.1 5.1 5.9 10.3 12.7 14.4 18.9 22.3 29.8 20.1 27.6-1.8-1.9-19.1-21.9-23.7-27.4-3.6-4.4-8.7-9.6-7.9-8.1.4.8 1.4 2.1 2.1 3 3.8 4.6 14.3 19.2 14.3 20 0 .4.3 1 .8 1.2.8.3 10.4 13.1 14.1 18.8 2.1 3.3 2.1 3.4.1 1-1.2-1.4-3.6-4.3-5.3-6.4-1.8-2.2-4.8-5.8-6.7-8.1-1.9-2.2-5.3-6.3-7.5-9-2.2-2.6-4.9-5.8-6-7.1-1.1-1.2-2.7-3.1-3.5-4.1-.8-1-3.2-4-5.4-6.6-2.1-2.7-4-4.6-4.3-4.4-.2.3.5 1.5 1.7 2.8 1.7 2 13 17.5 32.5 44.3 3.3 4.6 4.4 7.6 2.8 7.6-.5 0-7.5-5.2-15.8-11.5-8.2-6.4-16.3-12.6-17.9-13.8-1.6-1.2-4.3-3.3-6-4.7-5.3-4.4-.5 1.7 12.9 16.4.6.6 4.1 4.7 8 9.1 3.8 4.4 7.2 8.2 7.5 8.5.3.3 1.2 1.4 2 2.5l1.5 2-2.4-2c-1.3-1.1-3.4-2.9-4.6-4-4.7-4.4-14.2-13-17.5-15.9l-3.5-3.1 2.5 2.9c2.5 2.8 5.7 6.2 19.3 20.4 4.1 4.3 6.3 7.3 5.7 7.7-.6.4-1.9 0-2.9-.9S355 73 354.6 73c-.4 0-1.2-.5-1.9-1-2.6-2.2-16.8-11-17.7-11-.6 0-1-.5-1-1 0-.6-.4-1-.9-1-.4 0-5-2.7-10-6.1-5.1-3.3-9.5-5.9-9.7-5.6-.3.2.6 1.1 1.9 2 1.3.8 5.9 4.4 10.3 7.9 4.3 3.4 8.6 6.8 9.4 7.5.8.6 4.8 3.9 8.9 7.3 4.1 3.3 8.3 6.7 9.4 7.5 3.3 2.3 1.6 2.5-3.3.3-2.5-1.1-5.8-2.6-7.5-3.3-1.6-.8-6.1-2.8-10-4.5-7.9-3.6-14.3-5.7-11.1-3.7 1 .7 6.4 4.9 12 9.5 13 10.7 12.7 10.4 15.6 12.5 3.7 2.6 1.7 2.1-14.3-3.2-14.7-5-17.2-5.2-9.7-1 2.2 1.3 4 2.6 4 3.1 0 .4.6.8 1.3.8.9 0 10.4 5.9 15.6 9.7.2.2.2.5-.1.8-.3.3-2.7-.3-5.4-1.3-6.5-2.5-8.3-3.1-8.9-3.2-.3 0-1.9-.7-3.5-1.5-1.7-.9-3-1.1-3-.5 0 .5.6 1 1.4 1 .8 0 1.6.4 1.8.8.3.9 9.3 7.2 10.3 7.2.3 0 1.5.8 2.5 1.8 1.9 1.8 1.7 2.2-9.3 24.2-12.5 24.9-23.7 48.6-23.7 50.1 0 .5-.5.9-1.2.9-.6 0-.9.3-.6.6.5.5-1.2 4.4-10.8 25.1-1.3 2.8-2.4 5.4-2.4 5.7 0 .6-7.9 17.3-14.6 31.1-5.4 11-8.7 16.9-9.6 17.3-.5.2-.8 1.1-.8 2.1 0 .9-.8 2.6-1.8 3.7-.9 1-2.9 4.4-4.5 7.4-1.5 3-4.3 8.4-6.3 12-7 12.8-27.4 54.1-27.4 55.6 0 .2-1.3 3.3-3 6.9-1.6 3.6-3 7-3 7.5 0 .6-.4 1.8-1 2.8-2.2 4.1-12.7 32.3-13.6 36.7-1 4.9-5.6 18-7.3 20.9-6.4 10.7-16.4 32.6-17.6 38.6-.2 1-.8 2.7-1.4 3.8-.6 1.1-.7 2.2-.4 2.6.3.3.2.6-.3.6s-1 .8-1.1 1.7c0 1-.3 2.7-.6 3.8-.9 3.3-3.6 15.9-4.3 20-.3 2-.7 4.6-.9 5.6-2.7 13.8-2.7 53.1 0 69.9.3 1.9.8 5.3 1.1 7.5.5 4.4.8 5.8 1.7 9.5.3 1.4 1.8 7.4 3.3 13.5 3.5 14.6 10.1 34 16.5 48.4 5 11.1 15.8 31.4 17.1 31.9.4.2.8.9.8 1.5 0 2.2 10.9 17.9 27.5 39.6 8.8 11.6 38.4 40.4 51.5 50.1 1.8 1.4 4.5 3.4 5.9 4.6 16.8 13.6 54.3 34.9 85.1 48.4 12.8 5.6 15.4 6.7 20.5 8.5 2.8 1 5.4 2.2 6 2.7.5.4 1.7.8 2.7.8 1 0 1.8.7 1.8 1.5 0 .9-1 1.5-2.6 1.5-3.1 0-5.8 1.4-10.8 5.6-7 5.9-17.6 9.4-33.1 10.9-18.9 1.7-19.3 2-23.5 15.5-1.6 5.2-2.7 9.6-2.5 9.8.2.3 1.7-1.6 3.2-4.2 2.9-4.8 4.9-6.1 3.8-2.5-.4 1.2-.9 2.9-1 3.8-.2.9-.4 1.6-.5 1.6-.1 0-.3.7-.5 1.5s-1 3.5-1.9 5.9c-2.3 6.3-1.3 6.1 2-.3 1.5-3.1 3.8-6.8 5-8.3l2.2-2.8-.4 3.9c-.5 5.2-1.1 9-2.8 15.9-1.6 6.9-.5 6.4 1.9-.8 2.6-8 8.6-19.5 10.2-19.5 1.4 0 1.7.6 2.8 5.3l.6 2.8 3.5-3c1.9-1.7 3.8-3.1 4.3-3.1.4 0 1.3-1.1 1.9-2.5 1.4-3.1 3.4-3.1 11.5-.4 7.4 2.6 13.2 2.7 17.6.4 3.9-1.9 8.3-6.1 10-9.3.6-1.2 2.8-2.9 4.8-3.7 5.3-2.2 11.9-6.7 13.1-9 .6-1.1 1.6-3.2 2.2-4.7.7-1.6 1.7-2.8 2.2-2.8.6 0 6.3 1.5 12.7 3.4 10.1 2.9 17 4.8 17.8 4.7.2 0 3.2.9 6.8 1.9 3.6 1 6.8 1.9 7 1.9.5 0 6.8 1.2 8.8 1.7.4.1 1.5.2 2.4.3 3.2.2.2 1.5-4 1.7-2.3.1-8 .5-12.7.9-4.7.4-13 .9-18.5 1-19 .6-26.9 1.6-32.2 4.2-3.8 1.7-5.4 3.8-10.8 13.8-2.1 3.8-4.5 8.1-5.4 9.5-1.5 2.4-1.4 2.3 2.4-.5 2.2-1.7 4.2-3.2 4.5-3.5 1.2-1.2 6.6-4.7 8.3-5.3 2.3-.9 2.1.4-.8 4.7-1.4 2-2.5 4.1-2.5 4.6 0 .6-.4 1-1 1-.5 0-1 .5-1 1.1 0 .7-1.6 3.4-3.6 6.1-6 8.4-4.4 7.4 12.2-8.1 4.4-4.1 7.3-5.5 7.9-3.9.4 1.1 0 4.8-.5 5.5-.2.2-.4.7-.5 1.3-.1.5-.4 1.2-.5 1.5-.1.3-.3.8-.4 1.2-.6 2.5-2.2 6.5-4.7 11.7-1.6 3.3-2.7 6.1-2.5 6.3.2.2 3.4-3.8 7.2-8.9 3.8-5.1 9.4-11.9 12.6-15.1 4.9-5 6.2-5.8 8.8-5.5 2.5.2 3.6 1.2 5.3 4.3 2.7 4.9 3.9 5.9 5 4 .7-1.4 6.2-4.4 8.9-4.9 4.7-1 7.5-2.2 8.6-3.7.6-1 2.7-2.2 4.5-2.8 3.5-1.1 6-1 18.2 1.4 13.3 2.5 18.7 3.1 26 2.9 7.3-.2 14.1-1 15.6-2 .5-.3 1.8-.7 2.9-.9 3.1-.6 14.1-6.4 18-9.5 3.6-2.8 11.9-5.2 19.5-5.5 7.7-.4 24-1.7 24.5-2 .3-.1 3-.6 6.1-.9 3.1-.4 6.5-.8 7.5-1 12.3-2.5 22-4.8 27.2-6.5l6.4-1.9 8.1 2.4c4.5 1.3 9.6 2.9 11.4 3.5 1.8.5 4.2 1.2 5.3 1.4 4.9 1 6.8 2.1 11.5 7 6.8 7 16.2 17.7 22.1 25 2.6 3.3 5.1 6.2 5.4 6.5.3.3 2.4 3 4.8 6 2.3 3 4.5 5.9 5 6.5 4.7 5.8 19.2 25.8 19.2 26.5 0 .4.3 1 .8 1.2 1.2.5 15.9 21.7 31.8 45.8 5.6 8.5 11 16.5 12.1 17.8l1.8 2.2 100.2-.2 100.2-.3-22.7-23.1c-25-25.5-71.6-73.4-80.8-83.1-35.3-37.1-43-45.2-57.6-61.1-3.1-3.4-7.1-9.4-18.7-28.2-6.8-11-15.5-24.4-24-37-13.8-20.6-14.4-21.4-15.8-22.3-.7-.4-1.3-1.4-1.3-2 0-.7-1.1-2.6-2.5-4.2-1.4-1.7-4.8-6.2-7.7-10-2.9-3.9-6-7.9-7-8.9-3.2-3.5-1.1-2.8 8.3 3.1 13.4 8.2 14.1 8.7 27 15.2 14.6 7.5 38.4 16.9 39.7 15.6.7-.7-8.9-29.3-15.1-45.2-10.3-26.1-30.4-69.6-40.2-86.8-1.2-2.2-3.6-6.5-5.2-9.5-9.7-18-26.7-46-37.9-62.6-8.6-12.6-20.6-29.7-21.3-30.4-.3-.3-3.3-4.1-6.6-8.5s-6.4-8.5-7-9.1c-.5-.7-1.7-2-2.5-3.1-2.6-3.2-10.4-12.7-11.5-13.9-.5-.7-3.5-4-6.5-7.5-7-8.2-37.9-39.1-44.9-44.9-3-2.5-5.9-5-6.6-5.6-2.4-2.4-23.1-17.6-30.8-22.8-16.2-10.6-42.5-23.7-52.6-26.2-.9-.2-4.3-1.2-7.6-2.3-3.3-1.1-7.2-2.2-8.7-2.5-3.2-.7-3.7-2-4.4-11.7-1-13-.9-17 1.2-34.7.7-5.7 1.1-10.1 1.9-18.2.4-3.6.9-8.1 1.1-10 .7-6.4 1.5-17.4 1.8-25.9l.3-8.5 7.8-5.8c4.3-3.2 8.4-5.8 9.1-5.8.7 0 1.4-.3 1.6-.8.4-.9 7.7-5 17.6-9.8 3.9-2 7.2-3.9 7.2-4.3 0-.9-14.4-14.8-21.5-20.8-6.8-5.7-15.7-11.7-22.7-15.3-4-2.1-5-3.2-6.3-7-2.4-6.9-8.3-15.9-15-22.6-3.3-3.4-7.8-8.3-10-11-5.5-6.7-17.7-19.4-32.5-33.8-51-49.8-69.1-69.2-81.4-87.3-1.6-2.4-3.1-4.1-3.5-3.9-.4.3-3.2-2.3-6.3-5.7-3.1-3.4-7.7-8.5-10.2-11.2-2.5-2.8-4.6-5.3-4.6-5.6 0-.4-.7-.9-1.4-1.2-1.3-.5 6.3 10.6 13.9 20.5 1.1 1.4 2.8 3.6 3.7 4.9 1 1.2 1.6 2.4 1.4 2.6-.4.4-6.9-5.8-30.8-28.9-9.9-9.6-10.8-10.3-10.8-9z"/></svg>